<svg width="200" height="120" viewBox="0 0 200 120" xmlns="http://www.w3.org/2000/svg">
  <defs>
    <linearGradient id="carGradient" x1="0%" y1="0%" x2="0%" y2="100%">
      <stop offset="0%" style="stop-color:#e5e7eb;stop-opacity:1" />
      <stop offset="100%" style="stop-color:#9ca3af;stop-opacity:1" />
    </linearGradient>
  </defs>
  
  <!-- Car body -->
  <path d="M20 80 L30 60 L50 50 L150 50 L170 60 L180 80 L180 90 L20 90 Z" fill="url(#carGradient)" stroke="#374151" stroke-width="2"/>
  
  <!-- Car roof -->
  <path d="M40 50 L60 35 L140 35 L160 50" fill="url(#carGradient)" stroke="#374151" stroke-width="2"/>
  
  <!-- Windows -->
  <path d="M45 50 L55 40 L85 40 L90 50" fill="#60a5fa" stroke="#1e40af" stroke-width="1"/>
  <path d="M110 50 L115 40 L145 40 L155 50" fill="#60a5fa" stroke="#1e40af" stroke-width="1"/>
  
  <!-- Wheels -->
  <circle cx="50" cy="90" r="15" fill="#1f2937" stroke="#000" stroke-width="2"/>
  <circle cx="50" cy="90" r="8" fill="#6b7280"/>
  <circle cx="150" cy="90" r="15" fill="#1f2937" stroke="#000" stroke-width="2"/>
  <circle cx="150" cy="90" r="8" fill="#6b7280"/>
  
  <!-- Headlights -->
  <ellipse cx="175" cy="70" rx="8" ry="6" fill="#fbbf24"/>
  
  <!-- Grille -->
  <rect x="170" y="65" width="8" height="10" fill="#374151"/>
</svg>